<svg width="227" height="31" viewBox="0 0 227 31" fill="none" xmlns="http://www.w3.org/2000/svg">
<path d="M0.528409 30V0.90909H12.0057C14.2121 0.90909 16.0919 1.33049 17.6449 2.1733C19.1979 3.00663 20.3816 4.16667 21.196 5.65341C22.0199 7.13068 22.4318 8.83523 22.4318 10.767C22.4318 12.6989 22.0152 14.4034 21.1818 15.8807C20.3485 17.358 19.1411 18.5085 17.5597 19.3324C15.9877 20.1562 14.0843 20.5682 11.8494 20.5682H4.53409V15.6392H10.8551C12.0388 15.6392 13.0142 15.4356 13.7812 15.0284C14.5578 14.6117 15.1354 14.0388 15.5142 13.3097C15.9025 12.571 16.0966 11.7235 16.0966 10.767C16.0966 9.80114 15.9025 8.95833 15.5142 8.23864C15.1354 7.50947 14.5578 6.94602 13.7812 6.5483C13.0047 6.1411 12.0199 5.9375 10.8267 5.9375H6.67898V30H0.528409Z" fill="#15BF59"/>
<path d="M28.0817 30H21.4908L31.5334 0.90909H39.4595L49.4879 30H42.897L35.6101 7.55682H35.3828L28.0817 30ZM27.6697 18.5653H43.2379V23.3665H27.6697V18.5653ZM77.2898 11.0938H71.0682C70.9545 10.2888 70.7225 9.57386 70.3722 8.94886C70.0218 8.31439 69.572 7.77462 69.0227 7.32955C68.4735 6.88447 67.839 6.54356 67.1193 6.30682C66.4091 6.07008 65.6373 5.9517 64.804 5.9517C63.2983 5.9517 61.9867 6.32576 60.8693 7.07386C59.7519 7.8125 58.8854 8.89205 58.2699 10.3125C57.6544 11.7235 57.3466 13.4375 57.3466 15.4545C57.3466 17.5284 57.6544 19.2708 58.2699 20.6818C58.8949 22.0928 59.7661 23.1581 60.8835 23.8778C62.0009 24.5975 63.2936 24.9574 64.7614 24.9574C65.5852 24.9574 66.3475 24.8485 67.0483 24.6307C67.7585 24.4129 68.3883 24.0956 68.9375 23.679C69.4867 23.2528 69.9413 22.7367 70.3011 22.1307C70.6705 21.5246 70.9261 20.8333 71.0682 20.0568L77.2898 20.0852C77.1288 21.4205 76.7263 22.7083 76.0824 23.9489C75.4479 25.1799 74.5909 26.2831 73.5114 27.2585C72.4413 28.2244 71.1629 28.9915 69.6761 29.5597C68.1989 30.1184 66.5275 30.3977 64.6619 30.3977C62.0672 30.3977 59.7472 29.8106 57.7017 28.6364C55.6657 27.4621 54.0559 25.7623 52.8722 23.5369C51.6979 21.3116 51.1108 18.6174 51.1108 15.4545C51.1108 12.2822 51.7074 9.58333 52.9006 7.35795C54.0938 5.13258 55.7131 3.4375 57.7585 2.27273C59.804 1.09848 62.1051 0.511363 64.6619 0.511363C66.3475 0.511363 67.91 0.748105 69.3494 1.22159C70.7983 1.69508 72.0814 2.38636 73.1989 3.29545C74.3163 4.19507 75.2254 5.29829 75.9261 6.60511C76.6364 7.91193 77.0909 9.40814 77.2898 11.0938ZM81.7003 30V0.90909H87.8509V12.9119H100.337V0.90909H106.473V30H100.337V17.983H87.8509V30H81.7003ZM116.558 30H109.967L120.01 0.90909H127.936L137.964 30H131.374L124.087 7.55682H123.859L116.558 30ZM116.146 18.5653H131.714V23.3665H116.146V18.5653ZM165.798 0.90909V30H160.486L147.83 11.6903H147.616V30H141.466V0.90909H146.864L159.42 19.2045H159.676V0.90909H165.798ZM190.17 10.3125C189.971 9.62121 189.692 9.01042 189.332 8.48011C188.972 7.94034 188.531 7.4858 188.011 7.11648C187.499 6.73769 186.912 6.44886 186.249 6.25C185.596 6.05114 184.871 5.9517 184.076 5.9517C182.589 5.9517 181.282 6.32102 180.156 7.05966C179.038 7.79829 178.167 8.87311 177.542 10.2841C176.917 11.6856 176.604 13.3996 176.604 15.4261C176.604 17.4527 176.912 19.1761 177.528 20.5966C178.143 22.017 179.014 23.1013 180.141 23.8494C181.268 24.5881 182.599 24.9574 184.133 24.9574C185.525 24.9574 186.713 24.7112 187.698 24.2188C188.692 23.7169 189.45 23.0114 189.971 22.1023C190.501 21.1932 190.766 20.1184 190.766 18.8778L192.016 19.0625H184.516V14.4318H196.69V18.0966C196.69 20.6534 196.15 22.8504 195.07 24.6875C193.991 26.5152 192.504 27.9261 190.61 28.9205C188.716 29.9053 186.548 30.3977 184.104 30.3977C181.377 30.3977 178.981 29.7964 176.917 28.5938C174.853 27.3816 173.243 25.6629 172.087 23.4375C170.942 21.2027 170.369 18.5511 170.369 15.483C170.369 13.125 170.71 11.0227 171.391 9.17614C172.083 7.32008 173.049 5.74811 174.289 4.46023C175.53 3.17235 176.974 2.19223 178.621 1.51989C180.269 0.847537 182.054 0.511363 183.977 0.511363C185.624 0.511363 187.158 0.75284 188.579 1.2358C189.999 1.70928 191.259 2.38163 192.357 3.25284C193.465 4.12405 194.37 5.16098 195.07 6.36364C195.771 7.55682 196.221 8.87311 196.42 10.3125H190.17ZM205.425 30H198.835L208.877 0.90909H216.803L226.832 30H220.241L212.954 7.55682H212.727L205.425 30ZM205.013 18.5653H220.582V23.3665H205.013V18.5653Z" fill="#624CF5"/>
</svg>
